<?xml version="1.0" encoding="UTF-8" standalone="no"?>
<!-- Created with Inkscape (http://www.inkscape.org/) -->

<svg
   width="768"
   height="576"
   viewBox="0 0 203.2 152.40088"
   version="1.1"
   id="svg5"
   inkscape:version="1.4.2 (f4327f4, 2025-05-13)"
   sodipodi:docname="Logo.svg"
   inkscape:export-filename="..\Logo.png"
   inkscape:export-xdpi="24.24"
   inkscape:export-ydpi="24.24"
   xmlns:inkscape="http://www.inkscape.org/namespaces/inkscape"
   xmlns:sodipodi="http://sodipodi.sourceforge.net/DTD/sodipodi-0.dtd"
   xmlns="http://www.w3.org/2000/svg"
   xmlns:svg="http://www.w3.org/2000/svg"
   xmlns:rdf="http://www.w3.org/1999/02/22-rdf-syntax-ns#"
   xmlns:cc="http://creativecommons.org/ns#"
   xmlns:dc="http://purl.org/dc/elements/1.1/">
  <title
     id="title134">Logo for Power Swing ReMixed</title>
  <sodipodi:namedview
     id="namedview7"
     pagecolor="#ffffff"
     bordercolor="#666666"
     borderopacity="1.0"
     inkscape:showpageshadow="2"
     inkscape:pageopacity="0.0"
     inkscape:pagecheckerboard="true"
     inkscape:deskcolor="#d1d1d1"
     inkscape:document-units="px"
     showgrid="false"
     inkscape:zoom="0.53640678"
     inkscape:cx="742.90634"
     inkscape:cy="398.01883"
     inkscape:current-layer="layer1"
     inkscape:export-bgcolor="#00ff7500">
    <inkscape:page
       x="0"
       y="0"
       width="203.2"
       height="152.40088"
       id="page1"
       margin="0"
       bleed="0"
       inkscape:label="Logo" />
  </sodipodi:namedview>
  <defs
     id="defs2">
    <marker
       style="overflow:visible"
       id="ArrowWideRounded"
       refX="0"
       refY="0"
       orient="auto"
       inkscape:stockid="Wide, rounded arrow"
       markerWidth="1"
       markerHeight="1"
       viewBox="0 0 1 1"
       inkscape:isstock="true"
       inkscape:collect="always"
       preserveAspectRatio="xMidYMid">
      <path
         style="fill:none;stroke:context-stroke;stroke-width:1;stroke-linecap:round"
         d="M 0.45710678,3 -2.5428932,0 0.45710678,-3"
         sodipodi:nodetypes="ccc"
         id="path8" />
    </marker>
    <inkscape:path-effect
       effect="fillet_chamfer"
       id="path-effect7"
       is_visible="true"
       lpeversion="1"
       nodesatellites_param="F,0,0,1,0,0,0,1 @ F,0,0,1,0,0,0,1 | F,0,0,1,0,0,0,1 @ F,0,0,1,0,0,0,1 | F,0,0,1,0,0,0,1 @ F,0,0,1,0,0,0,1 @ F,0,0,1,0,0,0,1 | F,0,0,1,0,0,0,1 @ F,0,0,1,0,0,0,1 | F,0,0,1,0,0,0,1 @ F,0,0,1,0,0,0,1 | F,0,0,1,0,0,0,1 @ F,0,0,1,0,0,0,1 @ F,0,0,1,0,0,0,1 | F,0,0,1,0,0,0,1 @ F,0,0,1,0,0,0,1 | F,0,0,1,0,0,0,1 @ F,0,0,1,0,0,0,1 | F,0,0,1,0,0,0,1 @ F,0,0,1,0,0,0,1 @ F,0,0,1,0,0,0,1 | F,0,0,1,0,0,0,1 @ F,0,0,1,0,0,0,1 | F,0,0,1,0,0,0,1 @ F,0,0,1,0,0,0,1 | F,0,0,1,0,0,0,1 @ F,0,0,1,0,0,0,1 @ F,0,0,1,0,0,0,1 | F,0,0,1,0,0,0,1 @ F,0,0,1,0,0,0,1 | F,0,0,1,0,0,0,1 @ F,0,0,1,0,0,0,1 | F,0,0,1,0,0,0,1 @ F,0,0,1,0,0,0,1 @ F,0,0,1,0,0,0,1 | F,0,0,1,0,0,0,1 @ F,0,0,1,0,0,0,1 | F,0,0,1,0,0,0,1 @ F,0,0,1,0,0,0,1 | F,0,0,1,0,0,0,1 @ F,0,0,1,0,0,0,1 @ F,0,0,1,0,0,0,1 | F,0,0,1,0,0,0,1 @ F,0,0,1,0,0,0,1 | F,0,0,1,0,0,0,1 @ F,0,0,1,0,0,0,1 | F,0,0,1,0,0,0,1 @ F,0,0,1,0,0,0,1 @ F,0,0,1,0,0,0,1 | F,0,0,1,0,0,0,1 @ F,0,0,1,0,0,0,1 | F,0,0,1,0,0,0,1 @ F,0,0,1,0,0,0,1 | F,0,0,1,0,0,0,1 @ F,0,0,1,0,0,0,1 @ F,0,0,1,0,0,0,1 | F,0,0,1,0,0,0,1 @ F,0,0,1,0,0,0,1 | F,0,0,1,0,0,0,1 @ F,0,0,1,0,0,0,1 | F,0,0,1,0,0,0,1 @ F,0,0,1,0,0,0,1 @ F,0,0,1,0,0,0,1 | F,0,0,1,0,0,0,1 @ F,0,0,1,0,0,0,1 | F,0,0,1,0,0,0,1 @ F,0,0,1,0,0,0,1 | F,0,0,1,0,0,0,1 @ F,0,0,1,0,0,0,1 @ F,0,0,1,0,0,0,1 | F,0,0,1,0,0,0,1 @ F,0,0,1,0,0,0,1 | F,0,0,1,0,0,0,1 @ F,0,0,1,0,0,0,1 | F,0,0,1,0,0,0,1 @ F,0,0,1,0,0,0,1 @ F,0,0,1,0,0,0,1 | F,0,0,1,0,0,0,1 @ F,0,0,1,0,0,0,1 | F,0,0,1,0,0,0,1 @ F,0,0,1,0,0,0,1 | F,0,0,1,0,0,0,1 @ F,0,0,1,0,0,0,1 @ F,0,0,1,0,0,0,1"
       radius="0"
       unit="px"
       method="auto"
       mode="F"
       chamfer_steps="1"
       flexible="false"
       use_knot_distance="true"
       apply_no_radius="true"
       apply_with_radius="true"
       only_selected="false"
       hide_knots="false" />
    <inkscape:path-effect
       effect="skeletal"
       id="path-effect6"
       is_visible="true"
       lpeversion="1"
       pattern="m 203.3345,77.407693 v -2.744034 m 0,-1.05834 2.81407,4.874125 m -5.62814,0 2.81407,-4.874125 v 0 m 0,6.676499 v -2.744034 m 0,-1.05834 2.81407,4.874125 m -5.62814,0 2.81407,-4.874125 v 0 m 0,6.676499 v -2.744034 m 0,-1.05834 2.81407,4.874125 m -5.62814,0 2.81407,-4.874125 v 0 m 0,6.676498 v -2.744033 m 0,-1.05834 2.81407,4.874124 m -5.62814,0 2.81407,-4.874124 v 0 m 0,6.676499 v -2.744034 m 0,-1.05834 2.81407,4.874124 m -5.62814,0 2.81407,-4.874124 v 0 m 0,6.676499 v -2.744034 m 0,-1.05834 2.81407,4.874125 m -5.62814,0 2.81407,-4.874125 v 0 m 0,6.676499 v -2.744034 m 0,-1.05834 2.81407,4.874125 m -5.62814,0 2.81407,-4.874125 v 0 m 0,6.676499 v -2.744034 m 0,-1.058341 2.81407,4.874126 m -5.62814,0 2.81407,-4.874126 v 0 m 0,6.676497 v -2.744032 m 0,-1.05834 2.81407,4.874122 m -5.62814,0 2.81407,-4.874122 v 0 m 0,6.676502 v -2.74404 m 0,-1.058337 2.81407,4.874127 m -5.62814,0 2.81407,-4.874127 v 0 m 0,6.676497 v -2.74403 m 0,-1.05834 2.81407,4.87412 m -5.62814,0 2.81407,-4.87412 v 0 m 0,6.6765 v -2.74404 m 0,-1.05834 2.81407,4.87413 m -5.62814,0 2.81407,-4.87413 v 0"
       copytype="single"
       prop_scale="1.4666361"
       scale_y_rel="true"
       spacing="0"
       normal_offset="0"
       tang_offset="0"
       prop_units="false"
       vertical_pattern="false"
       hide_knot="false"
       fuse_tolerance="0" />
    <inkscape:path-effect
       effect="lattice2"
       gridpoint0="374.60322,40.230278"
       gridpoint1="380.23136,40.230278"
       gridpoint2="374.60322,85.908153"
       gridpoint3="380.23136,85.908153"
       gridpoint4="376.01026,40.230278"
       gridpoint5="378.82432,40.230278"
       gridpoint6="376.01026,85.908153"
       gridpoint7="378.82432,85.908153"
       gridpoint8x9="377.41729,40.230278"
       gridpoint10x11="377.41729,85.908153"
       gridpoint12="374.60322,51.649747"
       gridpoint13="380.23136,51.649747"
       gridpoint14="374.60322,74.488684"
       gridpoint15="380.23136,74.488684"
       gridpoint16="376.01026,51.649747"
       gridpoint17="378.82432,51.649747"
       gridpoint18="376.01026,74.488684"
       gridpoint19="378.82432,74.488684"
       gridpoint20x21="377.41729,51.649747"
       gridpoint22x23="377.41729,74.488684"
       gridpoint24x26="374.60322,63.069216"
       gridpoint25x27="380.23136,63.069216"
       gridpoint28x30="376.01026,63.069216"
       gridpoint29x31="378.82432,63.069216"
       gridpoint32x33x34x35="377.41729,63.069216"
       id="path-effect5"
       is_visible="true"
       lpeversion="1"
       horizontal_mirror="false"
       vertical_mirror="false"
       perimetral="false"
       live_update="true" />
    <inkscape:path-effect
       effect="envelope"
       id="path-effect4"
       is_visible="true"
       lpeversion="1"
       yy="true"
       xx="true"
       bendpath1="m 374.72384,38.51043 12.6597,-2.719438"
       bendpath2="M 380.23136,40.230278 V 84.672582"
       bendpath3="m 370.90381,88.618615 42.86883,1.973016"
       bendpath4="M 374.60322,40.230278 V 84.672582"
       bendpath1-nodetypes="cc"
       bendpath3-nodetypes="cc" />
    <inkscape:path-effect
       effect="tiling"
       id="path-effect3"
       is_visible="true"
       lpeversion="1.3.1"
       unit="px"
       seed="1;1"
       lpesatellites=""
       num_rows="12"
       num_cols="1"
       gapx="0"
       gapy="-2"
       offset="0"
       offset_type="false"
       scale="0"
       rotate="0"
       mirrorrowsx="false"
       mirrorrowsy="false"
       mirrorcolsx="false"
       mirrorcolsy="false"
       mirrortrans="false"
       shrink_interp="false"
       split_items="false"
       link_styles="false"
       interpolate_scalex="false"
       interpolate_scaley="true"
       interpolate_rotatex="false"
       interpolate_rotatey="true"
       random_scale="false"
       random_rotate="false"
       random_gap_y="false"
       random_gap_x="false"
       transformorigin="" />
    <inkscape:path-effect
       effect="tiling"
       id="path-effect2"
       is_visible="true"
       lpeversion="1.3.1"
       unit="px"
       seed="1;1"
       lpesatellites=""
       num_rows="5"
       num_cols="1"
       gapx="0"
       gapy="15"
       offset="0"
       offset_type="false"
       scale="0"
       rotate="0"
       mirrorrowsx="false"
       mirrorrowsy="false"
       mirrorcolsx="false"
       mirrorcolsy="false"
       mirrortrans="false"
       shrink_interp="false"
       split_items="false"
       link_styles="false"
       interpolate_scalex="false"
       interpolate_scaley="true"
       interpolate_rotatex="false"
       interpolate_rotatey="true"
       random_scale="false"
       random_rotate="false"
       random_gap_y="false"
       random_gap_x="false"
       transformorigin="" />
    <inkscape:path-effect
       effect="tiling"
       id="path-effect1"
       is_visible="true"
       lpeversion="1.3.1"
       unit="px"
       seed="1;1"
       lpesatellites=""
       num_rows="1"
       num_cols="2"
       gapx="0"
       gapy="0"
       offset="0"
       offset_type="false"
       scale="0"
       rotate="0"
       mirrorrowsx="false"
       mirrorrowsy="false"
       mirrorcolsx="true"
       mirrorcolsy="false"
       mirrortrans="false"
       shrink_interp="false"
       split_items="false"
       link_styles="false"
       interpolate_scalex="false"
       interpolate_scaley="true"
       interpolate_rotatex="false"
       interpolate_rotatey="true"
       random_scale="false"
       random_rotate="false"
       random_gap_y="false"
       random_gap_x="false"
       transformorigin="" />
    <inkscape:path-effect
       effect="tiling"
       id="path-effect1194"
       is_visible="true"
       lpeversion="1"
       unit="px"
       seed="1;1"
       lpesatellites=""
       num_rows="3"
       num_cols="1"
       gapx="0"
       gapy="4"
       offset="0"
       offset_type="false"
       scale="0"
       rotate="0"
       mirrorrowsx="false"
       mirrorrowsy="false"
       mirrorcolsx="false"
       mirrorcolsy="false"
       mirrortrans="false"
       shrink_interp="false"
       split_items="false"
       link_styles="false"
       interpolate_scalex="false"
       interpolate_scaley="true"
       interpolate_rotatex="false"
       interpolate_rotatey="true"
       random_scale="false"
       random_rotate="false"
       random_gap_y="false"
       random_gap_x="false"
       transformorigin="" />
  </defs>
  <g
     inkscape:groupmode="layer"
     id="layer2"
     inkscape:label="logo"
     style="font-weight:bold;font-size:38.1px;line-height:1.25;font-family:'IM FELL THREE LINE PICA';-inkscape-font-specification:'IM FELL THREE LINE PICA Bold';font-variant-ligatures:none;text-align:center;text-anchor:middle;display:none;stroke-width:0.264583"
     transform="translate(-17.019903,-22.757041)">
    <g
       id="g526"
       transform="matrix(1.1178805,0.96599982,-0.96599982,1.1178805,30.467118,-230.92265)"
       inkscape:label="bat1"
       inkscape:export-filename="..\icon.png"
       inkscape:export-xdpi="12.46795"
       inkscape:export-ydpi="12.46795">
      <path
         style="fill:#ffe6d5;fill-opacity:1;stroke:#000000;stroke-width:2.01844;stroke-linecap:round;stroke-linejoin:round;stroke-dasharray:none;stroke-opacity:1"
         d="m 219.85093,186.21871 c 2.47143,-46.61112 -3.73597,-55.45917 -3.73597,-55.45917 l 0.0318,-86.058439 c 0,0 10.78656,-12.145175 19.03813,0 l 1.78728,85.429629 c 0,0 -5.46028,9.17683 -6.54978,56.02508 z"
         id="path738"
         sodipodi:nodetypes="ccccccc" />
      <path
         style="fill:#ffe6d5;stroke:#000000;stroke-width:1.73024;stroke-linecap:square;stroke-linejoin:bevel;stroke-miterlimit:70.2"
         id="path474"
         sodipodi:type="arc"
         sodipodi:cx="225.68739"
         sodipodi:cy="186.25485"
         sodipodi:rx="11.59188"
         sodipodi:ry="6.3406873"
         sodipodi:start="1.5597701"
         sodipodi:end="1.5077047"
         sodipodi:open="true"
         sodipodi:arc-type="arc"
         d="m 225.81521,192.59515 a 11.59188,6.3406873 0 0 1 -11.71635,-6.18787 11.59188,6.3406873 0 0 1 11.15905,-6.48876 11.59188,6.3406873 0 0 1 12.00683,6.01895 11.59188,6.3406873 0 0 1 -10.84648,6.64545" />
      <rect
         style="fill:#ff0000;fill-opacity:1;stroke:#ff2a2a;stroke-width:1.21901;stroke-linecap:square;stroke-linejoin:bevel;stroke-miterlimit:70.2;stroke-dasharray:none"
         id="rect1442"
         width="12.63019"
         height="21.690708"
         x="220.06801"
         y="144.14041"
         ry="7.5124836" />
    </g>
    <g
       id="g534"
       transform="matrix(-1.1178805,0.96599982,0.96599982,1.1178805,342.23928,-151.17809)"
       inkscape:label="bat2"
       style="display:inline">
      <path
         style="fill:#ffe6d5;fill-opacity:1;stroke:#000000;stroke-width:2.01844;stroke-linecap:round;stroke-linejoin:round;stroke-dasharray:none;stroke-opacity:1"
         d="m 184.56001,145.37936 c 2.47143,-46.611123 -3.73597,-55.4592 -3.73597,-55.4592 l 0.0318,-86.0584922 c 0,0 10.78656,-12.1451799 19.03813,0 l 1.78728,85.4296792 c 0,0 -5.46028,9.17686 -6.54978,56.025113 z"
         id="path528"
         sodipodi:nodetypes="ccccccc" />
      <path
         style="fill:#ffe6d5;stroke:#000000;stroke-width:1.73024;stroke-linecap:square;stroke-linejoin:bevel;stroke-miterlimit:70.2"
         id="path532"
         sodipodi:type="arc"
         sodipodi:cx="190.39676"
         sodipodi:cy="145.41566"
         sodipodi:rx="11.59188"
         sodipodi:ry="6.3406873"
         sodipodi:start="1.5597701"
         sodipodi:end="1.5077047"
         sodipodi:open="true"
         sodipodi:arc-type="arc"
         d="m 190.52457,151.75597 a 11.59188,6.3406873 0 0 1 -11.71634,-6.18787 11.59188,6.3406873 0 0 1 11.15904,-6.48877 11.59188,6.3406873 0 0 1 12.00684,6.01896 11.59188,6.3406873 0 0 1 -10.84649,6.64545" />
      <rect
         style="fill:#0000ff;fill-opacity:1;stroke:#0000ff;stroke-width:1.21901;stroke-linecap:square;stroke-linejoin:bevel;stroke-miterlimit:70.2;stroke-dasharray:none"
         id="rect530"
         width="12.63019"
         height="21.690708"
         x="184.77737"
         y="103.30109"
         ry="7.5124836" />
    </g>
  </g>
  <g
     id="g1"
     inkscape:label="ball"
     transform="translate(-267.72557,-80.400931)">
    <circle
       style="fill:#ffffff;fill-opacity:1;stroke:#000000;stroke-width:1.85209;stroke-linecap:square;stroke-linejoin:bevel;stroke-miterlimit:70.2;stroke-dasharray:none;paint-order:stroke markers fill"
       id="path1504"
       cx="377.32602"
       cy="126.61335"
       r="30.534794" />
    <path
       id="path2"
       style="display:none;fill:none;stroke:#ff0000;stroke-width:1.05834;stroke-linecap:round;stroke-linejoin:round;stroke-dasharray:none;stroke-opacity:1"
       d="m 377.41729,44.032652 v -2.744034 m 0,-1.05834 2.81407,4.874125 m -5.62814,0 2.81407,-4.874125 v 0 m 0,8.147332 v -2.744034 m 0,-1.05834 2.81407,4.874125 m -5.62814,0 2.81407,-4.874125 v 0 m 0,8.147333 v -2.744034 m 0,-1.05834 2.81407,4.874125 m -5.62814,0 2.81407,-4.874125 v 0 m 0,8.147332 v -2.744034 m 0,-1.05834 2.81407,4.874125 m -5.62814,0 2.81407,-4.874125 v 0 m 0,8.147332 v -2.744034 m 0,-1.05834 2.81407,4.874125 m -5.62814,0 2.81407,-4.874125 v 0 m 0,8.147333 V 63.01341 m 0,-1.05834 2.81407,4.874125 m -5.62814,0 2.81407,-4.874125 v 0 m 0,8.147332 v -2.744034 m 0,-1.05834 2.81407,4.874125 m -5.62814,0 2.81407,-4.874125 v 0 m 0,8.147332 v -2.744034 m 0,-1.05834 2.81407,4.874125 m -5.62814,0 2.81407,-4.874125 v 0 m 0,8.147333 v -2.744034 m 0,-1.05834 2.81407,4.874125 m -5.62814,0 2.81407,-4.874125 v 0 m 0,8.147332 v -2.744034 m 0,-1.05834 2.81407,4.874125 m -5.62814,0 2.81407,-4.874125 v 0 m 0,8.147332 v -2.744034 m 0,-1.05834 2.81407,4.874125 m -5.62814,0 2.81407,-4.874125 v 0 m 0,8.147333 V 89.08316 m 0,-1.05834 2.81407,4.874125 m -5.62814,0 2.81407,-4.874125 v 0"
       sodipodi:nodetypes="ccccccc"
       transform="translate(-14.181056,1.9526677)"
       inkscape:original-d="m 377.41729,44.032652 v -2.744034 m 0,-1.05834 2.81407,4.874125 m -5.62814,0 2.81407,-4.874125 v 0"
       inkscape:path-effect="#path-effect3" />
    <path
       style="fill:none;stroke:#ff0000;stroke-width:1.05834;stroke-linecap:round;stroke-linejoin:round;stroke-dasharray:none;stroke-opacity:1;marker-mid:url(#ArrowWideRounded)"
       d="m 377.32602,96.078879 c -0.58125,0.581249 -1.14037,1.162498 -1.67799,1.743537 -1.35054,1.4596 -2.56543,2.917874 -3.65467,4.371474 -1.11949,1.49397 -2.10627,2.98301 -2.97121,4.46349 -0.50897,0.87118 -0.97575,1.73941 -1.40256,2.60393 -0.65538,1.32751 -1.21651,2.6463 -1.69141,3.95369 -1.06976,2.94502 -1.70195,5.8322 -1.98829,8.63095 -0.31628,3.09153 -0.21057,6.07517 0.19356,8.90973 2.19493,15.39515 13.19257,26.39279 13.19257,26.39279"
       id="path7"
       sodipodi:nodetypes="csssssssc" />
  </g>
  <g
     inkscape:label="text"
     inkscape:groupmode="layer"
     id="layer1"
     transform="translate(-17.019903,-22.757041)">
    <g
       id="text2"
       style="font-weight:bold;font-size:71.2574px;line-height:1.25;font-family:'RT DIY-Tape';-inkscape-font-specification:'RT DIY-Tape Bold';font-variant-ligatures:none;text-align:center;text-anchor:middle;display:none;stroke:#ffffff;stroke-width:1.32292;paint-order:stroke markers fill"
       aria-label="POWER SWING&#10;REMIXED"
       inkscape:label="text-og">
      <text
         xml:space="preserve"
         style="font-style:normal;font-variant:normal;font-weight:bold;font-stretch:normal;font-size:71.2574px;line-height:1.25;font-family:'RT DIY-Tape';-inkscape-font-specification:'RT DIY-Tape Bold';font-variant-ligatures:none;text-align:center;text-anchor:middle;fill:#000000;fill-opacity:1;stroke:#ffffff;stroke-width:1.32292;stroke-linecap:butt;stroke-dasharray:none;stroke-opacity:1;paint-order:stroke markers fill"
         x="186.37183"
         y="66.371521"
         id="text196"><tspan
           sodipodi:role="line"
           id="tspan194"
           style="font-style:normal;font-variant:normal;font-weight:normal;font-stretch:normal;font-size:38.1002px;font-family:'Screaming Neon';-inkscape-font-specification:'Screaming Neon';text-align:center;letter-spacing:0px;text-anchor:middle;fill:#000000;fill-opacity:1;stroke:#ffffff;stroke-width:1.32292;stroke-linecap:butt;stroke-dasharray:none;stroke-opacity:1;paint-order:stroke markers fill"
           x="186.37183"
           y="66.371521"
           dy="30 0 0 0 0 0 0 0 0">POWER SWING</tspan><tspan
           sodipodi:role="line"
           style="font-style:normal;font-variant:normal;font-weight:normal;font-stretch:normal;font-size:38.1002px;font-family:'Urban&amp;Slick';-inkscape-font-specification:'Urban&amp;Slick';text-align:center;text-anchor:middle;fill:#000000;fill-opacity:1;stroke:#ffffff;stroke-width:1.32292;stroke-linecap:butt;stroke-dasharray:none;stroke-opacity:1;paint-order:stroke markers fill"
           x="186.37183"
           y="159.32628"
           id="tspan252">REMIXED</tspan></text>
    </g>
    <path
       style="font-weight:normal;font-size:38.1002px;line-height:1.25;font-family:'Urban&amp;Slick';-inkscape-font-specification:'Urban&amp;Slick';font-variant-ligatures:none;text-align:center;text-anchor:middle;stroke:#ffffff;stroke-width:1.32292;paint-order:stroke markers fill"
       d="m 52.604976,125.17509 h 1.45108 l 7.90654,4.57649 q 5.28342,1.65572 5.28342,3.92536 v 0.57671 q 0,2.43707 -7.62748,4.96716 l -0.27905,0.29766 v 0.29766 h 0.27905 q 5.04158,-1.45108 10.2692,-1.74874 1.17202,0.40928 1.17202,1.74874 l -5.28342,12.59465 -0.57671,2.065 0.29765,0.27905 h 0.27906 l 5.93455,-0.74414 -2.99518,-1.37667 q -0.53951,-1.0418 0.57671,-1.09761 6.45546,1.59991 6.45546,2.34405 v 0.59532 q -2.62311,3.53468 -5.58109,5.26482 -1.5627,-0.0372 -1.15342,-1.46968 l 3.0882,-2.25104 q -7.16239,0.79995 -8.94834,1.67432 -1.76734,-0.76275 -1.76734,-2.04639 6.45545,-12.50163 6.45545,-14.06434 v -0.29765 l -0.59532,-0.29766 q -8.85532,1.15342 -9.3018,2.47428 -0.5209,4.01838 -2.99518,8.07397 -1.76735,-0.40928 -1.76735,-1.74874 2.64171,-11.23659 1.95338,-18.99429 0.11162,-1.58131 -2.25104,-3.5719 l -0.57671,-1.17202 z m 5.86014,6.15779 v 3.79514 q -0.13023,2.34406 0.35347,2.34406 3.03239,-1.41388 4.91135,-3.21843 v -0.29766 q -1.65572,-1.74874 -4.98577,-2.62311 z m 16.83627,-6.12059 h 0.31626 q 8.07397,3.25564 15.29217,3.25564 l 0.98599,-0.33487 q 1.0046,0.093 1.95338,2.28825 -0.33486,1.30225 -1.95338,1.30225 l -13.67365,-1.63712 -0.31627,0.33487 v 2.6045 l -0.33486,5.52527 0.98599,0.33487 11.70167,-0.98599 0.98599,1.30225 -1.17202,1.33946 -0.46509,-0.0372 h -0.31626 q -12.37141,0 -12.37141,2.60451 l -0.31626,5.52527 h 0.31626 q 11.49704,-4.55788 16.92929,-4.55788 h 1.61852 l 0.65112,0.65112 -15.60843,4.89275 q -3.25563,1.61852 -4.55789,3.25564 l -0.98599,0.31626 q -0.96739,0 -2.26964,-2.26964 1.39527,0 2.26964,-21.15231 l -0.65112,-2.93937 v -0.65113 z m 26.807794,0.11163 h 0.35347 q 3.31145,0 4.33465,9.72969 l 1.24644,8.96694 q 1.48829,-3.5719 4.1486,-17.97109 h 1.80455 q 1.43248,0.74414 1.43248,1.80455 -1.07901,4.87414 -1.07901,11.16216 0.83717,10.8087 2.39987,14.3806 l 0.74414,-5.72991 1.43248,0.70693 q -0.89297,8.65068 -1.86036,8.68789 l -0.91158,-0.0372 q -4.98577,-2.39986 -4.98577,-5.00437 l 1.07901,-0.72554 2.62311,2.60451 -1.22783,-3.36726 -1.45109,-9.00415 -0.0558,-4.1486 q -2.25103,11.8319 -4.44626,13.84109 -2.065,-0.68834 -2.69753,-11.47843 l -1.09761,-5.02298 -0.5209,-2.17662 q -3.534684,19.44077 -5.953154,19.44077 h -2.15801 q 5.767114,-18.95708 5.767114,-25.93343 z m 18.10133,1.5441 q 0.5209,-1.73014 2.53009,-1.76735 0.50229,0 1.0232,1.5255 0,1.39527 -2.28825,2.28824 -1.15342,-0.50229 -1.26504,-1.0232 z m 1.52549,4.57648 q 1.26505,0 1.26505,4.05559 -0.79996,16.50141 -2.0278,16.50141 -1.0418,-0.35347 -1.52549,-1.26505 1.26504,-10.38081 1.26504,-18.78965 z m 17.97109,-6.39964 q 2.19523,0.61392 2.19523,2.17662 -7.01356,7.64609 -7.181,9.99014 v 0.63253 q 5.93456,9.99014 5.93456,13.09694 l -0.94879,0.94879 q -1.93477,0 -6.54847,-10.62267 l -0.55811,-0.79995 q -1.41387,0.50229 -4.42766,9.22739 l -0.63252,2.49288 -0.93018,0.63253 q -1.43248,-0.61392 -1.5627,-1.24645 0.0558,-3.31144 5.93455,-14.04572 -2.80915,-6.49267 -5.61829,-10.92033 0.31626,-1.02319 1.24644,-1.24644 1.87896,0 4.22302,4.98577 0.46509,1.20924 1.39527,3.44167 l 0.5395,1.15342 6.32523,-9.58086 0.31626,-0.31626 z m 5.95315,0.16743 h 0.31627 q 8.07396,3.25564 15.29217,3.25564 l 0.98599,-0.33487 q 1.00459,0.093 1.95338,2.28825 -0.33487,1.30225 -1.95338,1.30225 l -13.67366,-1.63712 -0.31626,0.33487 v 2.6045 l -0.33487,5.52527 0.986,0.33487 11.70167,-0.98599 0.98599,1.30225 -1.17203,1.33946 -0.46509,-0.0372 h -0.31626 q -12.3714,0 -12.3714,2.60451 l -0.31626,5.52527 h 0.31626 q 11.49703,-4.55788 16.92929,-4.55788 h 1.61851 l 0.65113,0.65112 -15.60843,4.89275 q -3.25564,1.61852 -4.55789,3.25564 l -0.98599,0.31626 q -0.96739,0 -2.26964,-2.26964 1.39527,0 2.26964,-21.15231 l -0.65113,-2.93937 v -0.65113 z m 23.86844,0.22325 q 2.34406,0 3.85095,4.40905 2.92077,5.97176 7.14379,10.69708 3.36725,3.51608 3.73932,4.44626 0,1.80456 -9.22739,4.6137 l -6.6973,2.90216 h -0.31626 q -2.39987,0 -2.39987,-3.01378 2.17663,-4.48347 3.01379,-15.32938 l -0.29766,-7.83212 z m 3.34865,18.34316 0.85577,-0.093 -1.93478,4.05559 3.44167,-1.78595 q 4.22302,-1.26504 4.22302,-2.47428 l -7.90653,-11.94352 h -0.61392 v 0.31626 q 0.68833,6.52987 -0.20464,11.03195 l -0.29766,1.19063 -0.94879,2.80914 v 0.31626 h 0.22325 l 1.76734,-1.91617 z"
       id="path4"
       inkscape:label="ReMixed" />
    <path
       style="font-weight:normal;font-size:38.1002px;line-height:1.25;font-family:'Screaming Neon';-inkscape-font-specification:'Screaming Neon';font-variant-ligatures:none;text-align:center;letter-spacing:0px;text-anchor:middle;stroke:#ffffff;stroke-width:1.32292;paint-order:stroke markers fill"
       d="m 34.029266,61.625012 q 0.63252,0 1.07901,0.446486 0.44649,0.446487 0.44649,1.07901 0,4.055588 0,12.166763 0,0.632523 -0.44649,1.07901 -0.44649,0.446486 -1.07901,0.446486 -3.050991,0 -9.152976,0 -0.632523,0 -1.07901,0.446487 -0.446487,0.446487 -0.446487,1.07901 0,3.311443 0,9.934329 0,0.297658 -0.223243,0.520902 -0.223243,0.223243 -0.520901,0.223243 -0.520901,0 -1.525497,0 -0.297657,0 -0.558108,-0.223243 -0.223243,-0.223244 -0.223243,-0.520902 0,-8.892527 0,-26.677581 3.460272,0 6.883337,0 3.423065,0 6.846128,0 z m -1.52549,10.641267 q 0,-2.009191 0,-6.064779 0,-0.632522 -0.446492,-1.079009 -0.446486,-0.446487 -1.079009,-0.446487 -2.530092,0 -7.627482,0 0,3.050993 0,9.115771 2.567299,0 7.627482,0 0.632523,0 1.079009,-0.446487 0.446492,-0.446487 0.446492,-1.079009 z m 15.25496,13.729466 q 0.63252,0 1.07901,-0.446486 0.44649,-0.446487 0.44649,-1.07901 0,-6.101985 0,-18.268749 0,-0.632522 -0.44649,-1.079009 -0.44649,-0.446487 -1.07901,-0.446487 -2.00919,0 -6.10199,0 -0.63252,0 -1.07901,0.446487 -0.44648,0.446487 -0.44648,1.079009 0,6.064779 0,18.268749 0,0.632523 0.44648,1.07901 0.44649,0.446486 1.07901,0.446486 1.5255,0 3.051,0 1.52549,0 3.05099,0 z m 3.05099,-24.370733 q 0.63252,0 1.07901,0.446486 0.44649,0.446487 0.44649,1.07901 0,1.525496 0,4.576489 0,6.585679 0,19.794245 0,0.632523 -0.44649,1.079009 -0.44649,0.446487 -1.07901,0.446487 -4.05559,0 -12.20397,0 -0.59531,0 -1.0418,-0.446487 -0.48369,-0.446486 -0.48369,-1.079009 0,-8.111176 0,-24.370734 0,-0.632523 0.48369,-1.07901 0.44649,-0.446486 1.0418,-0.446486 3.05099,0 6.10199,0 3.05099,0 6.10198,0 z m 29.72858,27.421726 q -8.63208,0 -25.89623,0 -0.29766,0 -0.55811,-0.223243 -0.22324,-0.223244 -0.22324,-0.520902 0,-8.669283 0,-25.933437 0,-0.297658 0.22324,-0.520901 0.26045,-0.223243 0.55811,-0.223243 0.5209,0 1.52549,0 0.29766,0 0.5209,0.223243 0.22325,0.223243 0.22325,0.520901 0,7.627482 0,22.882445 0,0.297658 0.22324,0.520901 0.22324,0.223243 0.55811,0.223243 2.53009,0 7.62748,0 0.29766,0 0.5209,-0.223243 0.22325,-0.223243 0.22325,-0.520901 0,-7.627482 0,-22.882445 0,-0.297658 0.22324,-0.520901 0.22324,-0.223243 0.55811,-0.223243 0.48369,0 1.52549,0 0.29766,0 0.52091,0.223243 0.22324,0.223243 0.22324,0.520901 0,7.627482 0,22.882445 0,0.297658 0.22324,0.520901 0.22325,0.223243 0.55811,0.223243 2.53009,0 7.59027,0 0.33487,0 0.55811,-0.223243 0.22325,-0.223243 0.22325,-0.520901 0,-7.627482 0,-22.882445 0,-0.297658 0.22324,-0.520901 0.22324,-0.223243 0.5209,-0.223243 0.5209,0 1.5255,0 0.33486,0 0.55811,0.223243 0.22324,0.223243 0.22324,0.520901 0,8.632077 0,25.933437 0,0.297658 -0.22324,0.520902 -0.22325,0.223243 -0.55811,0.223243 z m 6.10198,-3.050993 q 3.53469,0 10.67848,0 0.29766,0 0.5209,0.223244 0.22324,0.223243 0.22324,0.558108 0,0.483694 0,1.525496 0,0.297658 -0.22324,0.520902 -0.22324,0.223243 -0.5209,0.223243 -4.57649,0 -13.72947,0 -0.29766,0 -0.55811,-0.223243 -0.22324,-0.223244 -0.22324,-0.520902 0,-8.669283 0,-25.933437 0,-0.297658 0.22324,-0.520901 0.26045,-0.223243 0.55811,-0.223243 4.57649,0 13.72947,0 0.29766,0 0.5209,0.223243 0.22324,0.223243 0.22324,0.520901 0,0.520901 0,1.525496 0,0.334865 -0.22324,0.558109 -0.22324,0.223243 -0.5209,0.223243 -3.5719,0 -10.67848,0 -0.33486,0 -0.5581,0.223244 -0.22325,0.223243 -0.22325,0.520901 0,2.530091 0,7.627481 0,0.297658 0.22325,0.520901 0.22324,0.223244 0.5581,0.223244 3.53469,0 10.67848,0 0.29766,0 0.5209,0.223243 0.22324,0.223244 0.22324,0.558109 0,0.520901 0,1.525496 0,0.297658 -0.22324,0.520901 -0.22324,0.223243 -0.5209,0.223243 -3.5719,0 -10.67848,0 -0.33486,0 -0.5581,0.223244 -0.22325,0.223243 -0.22325,0.558108 0,2.530092 0,7.627482 0,0.297658 0.22325,0.520901 0.22324,0.223243 0.5581,0.223243 z M 112.57372,61.625012 q 0.93018,0 1.59991,0.66973 0.66973,0.66973 0.66973,1.59991 0,3.571894 0,10.678475 0,0.93018 -0.66973,1.59991 -0.66973,0.66973 -1.59991,0.66973 -2.49288,0 -7.44144,0 -0.26045,0 -0.33487,0.260451 -0.11162,0.223243 0.0744,0.40928 3.0882,3.088199 9.3018,9.339014 0.26045,0.26045 0.18604,0.595315 -0.0372,0.372072 -0.29766,0.558109 -0.33486,0.223243 -1.00459,0.66973 -0.22325,0.148829 -0.4837,0.148829 -0.26045,-0.03721 -0.48369,-0.223244 -2.90217,-2.939371 -8.78091,-8.818113 -0.18603,-0.148828 -0.40928,-0.07441 -0.26045,0.07441 -0.26045,0.334865 0,2.753335 0,8.260004 0,0.297658 -0.22324,0.520902 -0.22324,0.223243 -0.5209,0.223243 -0.5209,0 -1.5255,0 -0.29766,0 -0.558104,-0.223243 -0.22324,-0.223244 -0.22324,-0.520902 0,-8.892527 0,-26.677581 3.274234,0 6.511254,0 3.23703,0 6.47406,0 z m -1.52549,12.166763 q 0.29765,0 0.5209,-0.223244 0.22324,-0.223243 0.22324,-0.520901 0,-2.530091 0,-7.627481 0,-0.297658 -0.22324,-0.520901 -0.22325,-0.223244 -0.5209,-0.223244 -2.79055,0 -8.40884,0 0,3.050993 0,9.115771 2.12081,0 4.20442,0 2.0836,0 4.20442,0 z m 25.89623,-9.115771 q -3.5719,0 -10.67848,0 -0.33486,0 -0.55811,0.223244 -0.22324,0.223243 -0.22324,0.520901 0,2.530091 0,7.627481 0,0.297658 0.22324,0.520901 0.22325,0.223244 0.55811,0.223244 3.53469,0 10.67848,0 0.29765,0 0.5209,0.223243 0.22324,0.223244 0.22324,0.558109 0,4.576489 0,13.729466 0,0.297658 -0.22324,0.520902 -0.22325,0.223243 -0.5209,0.223243 -4.57649,0 -13.72947,0 -0.29766,0 -0.55811,-0.223243 -0.22324,-0.223244 -0.22324,-0.520902 0,-0.520901 0,-1.525496 0,-0.334865 0.22324,-0.558108 0.26045,-0.223244 0.55811,-0.223244 3.57189,0 10.67847,0 0.29766,0 0.5209,-0.223243 0.22325,-0.223243 0.22325,-0.520901 0,-2.567299 0,-7.627482 0,-0.334865 -0.22325,-0.558108 -0.22324,-0.223244 -0.5209,-0.223244 -3.57189,0 -10.67847,0 -0.29766,0 -0.55811,-0.223243 -0.22324,-0.223243 -0.22324,-0.520901 0,-4.576489 0,-13.729467 0,-0.297658 0.22324,-0.520901 0.26045,-0.223243 0.55811,-0.223243 4.57649,0 13.72947,0 0.29765,0 0.5209,0.223243 0.22324,0.223243 0.22324,0.520901 0,0.520901 0,1.525496 0,0.334865 -0.22324,0.558109 -0.22325,0.223243 -0.5209,0.223243 z m 28.94722,24.370734 q -8.63208,0 -25.89623,0 -0.29766,0 -0.55811,-0.223243 -0.22325,-0.223244 -0.22325,-0.520902 0,-8.669283 0,-25.933437 0,-0.297658 0.22325,-0.520901 0.26045,-0.223243 0.55811,-0.223243 0.5209,0 1.52549,0 0.29766,0 0.5209,0.223243 0.22325,0.223243 0.22325,0.520901 0,7.627482 0,22.882445 0,0.297658 0.22324,0.520901 0.22324,0.223243 0.55811,0.223243 2.53009,0 7.62748,0 0.29766,0 0.5209,-0.223243 0.22324,-0.223243 0.22324,-0.520901 0,-7.627482 0,-22.882445 0,-0.297658 0.22325,-0.520901 0.22324,-0.223243 0.55811,-0.223243 0.48369,0 1.52549,0 0.29766,0 0.5209,0.223243 0.22325,0.223243 0.22325,0.520901 0,7.627482 0,22.882445 0,0.297658 0.22324,0.520901 0.22324,0.223243 0.55811,0.223243 2.53009,0 7.59027,0 0.33487,0 0.55811,-0.223243 0.22324,-0.223243 0.22324,-0.520901 0,-7.627482 0,-22.882445 0,-0.297658 0.22325,-0.520901 0.22324,-0.223243 0.5209,-0.223243 0.5209,0 1.5255,0 0.33486,0 0.5581,0.223243 0.22325,0.223243 0.22325,0.520901 0,8.632077 0,25.933437 0,0.297658 -0.22325,0.520902 -0.22324,0.223243 -0.5581,0.223243 z m 17.5246,-25.152086 q 0,0.334865 -0.22324,0.558109 -0.22324,0.223243 -0.5209,0.223243 -1.5255,0 -4.57649,0 -0.33486,0 -0.55811,0.223244 -0.22324,0.223243 -0.22324,0.520901 0,6.622886 0,19.831452 0,0.297658 0.22324,0.520901 0.22325,0.223243 0.55811,0.223243 1.5255,0 4.57649,0 0.29766,0 0.5209,0.223244 0.22324,0.223243 0.22324,0.558108 0,0.483694 0,1.525496 0,0.297658 -0.22324,0.520902 -0.22324,0.223243 -0.5209,0.223243 -4.57649,0 -13.72947,0 -0.29765,0 -0.55811,-0.223243 -0.22324,-0.223244 -0.22324,-0.520902 0,-0.520901 0,-1.525496 0,-0.334865 0.22324,-0.558108 0.26046,-0.223244 0.55811,-0.223244 1.5255,0 4.57649,0 0.29766,0 0.5209,-0.223243 0.22325,-0.223243 0.22325,-0.520901 0,-6.622887 0,-19.831452 0,-0.297658 -0.22325,-0.520901 -0.22324,-0.223244 -0.5209,-0.223244 -1.52549,0 -4.57649,0 -0.29765,0 -0.55811,-0.223243 -0.22324,-0.223244 -0.22324,-0.558109 0,-0.483694 0,-1.525496 0,-0.297658 0.22324,-0.520901 0.26046,-0.223243 0.55811,-0.223243 4.57649,0 13.72947,0 0.29766,0 0.5209,0.223243 0.22324,0.223243 0.22324,0.520901 0,0.372072 0,0.781352 0,0.372072 0,0.744144 z m 14.47362,-2.26964 q 0.48369,0 1.5255,0 0.29765,0 0.5209,0.223243 0.22324,0.223243 0.22324,0.520901 0,8.632077 0,25.933437 0,0.297658 -0.22324,0.520902 -0.22325,0.223243 -0.5209,0.223243 -0.52091,0 -1.5255,0 -0.33487,0 -0.63252,-0.186036 -0.33487,-0.223244 -0.44649,-0.483694 -2.71613,-6.101985 -8.11118,-18.268749 -0.11162,-0.297657 -0.40928,-0.223243 -0.33486,0.07441 -0.33486,0.372072 0,6.027571 0,18.045505 0,0.297658 -0.22324,0.520902 -0.22325,0.223243 -0.52091,0.223243 -0.5209,0 -1.52549,0 -0.29766,0 -0.55811,-0.223243 -0.22324,-0.223244 -0.22324,-0.520902 0,-8.669283 0,-25.933437 0,-0.297658 0.22324,-0.520901 0.26045,-0.223243 0.55811,-0.223243 0.5209,0 1.52549,0 0.29766,0 0.63253,0.186036 0.33486,0.186036 0.44648,0.483694 2.67892,6.101985 8.11118,18.268748 0.11162,0.260451 0.40928,0.223244 0.29766,-0.07442 0.29766,-0.372073 0,-6.027571 0,-18.045505 0,-0.297658 0.22324,-0.520901 0.22324,-0.223243 0.55811,-0.223243 z m 6.84613,3.795137 q 0,6.622886 0,19.831452 0,0.297658 0.22324,0.520901 0.22324,0.223243 0.55811,0.223243 2.53009,0 7.62748,0 0.29766,0 0.5209,-0.223243 0.22324,-0.223243 0.22324,-0.520901 0,-2.567299 0,-7.627482 0,-0.334865 -0.22324,-0.558108 -0.22324,-0.223244 -0.5209,-0.223244 -0.5209,0 -1.5255,0 -0.33486,0 -0.55811,-0.223243 -0.22324,-0.223243 -0.22324,-0.520901 0,-0.520901 0,-1.525496 0,-0.334865 0.22324,-0.558109 0.22325,-0.223243 0.55811,-0.223243 1.5255,0 4.57649,0 0.29766,0 0.5209,0.223243 0.22325,0.223244 0.22325,0.558109 0,4.576489 0,13.729466 0,0.297658 -0.22325,0.520902 -0.22324,0.223243 -0.5209,0.223243 -4.57649,0 -13.72946,0 -0.29766,0 -0.55811,-0.223243 -0.22325,-0.223244 -0.22325,-0.520902 0,-8.669283 0,-25.933437 0,-0.297658 0.22325,-0.520901 0.26045,-0.223243 0.55811,-0.223243 4.57648,0 13.72946,0 0.29766,0 0.5209,0.223243 0.22325,0.223243 0.22325,0.520901 0,0.520901 0,1.525496 0,0.334865 -0.22325,0.558109 -0.22324,0.223243 -0.5209,0.223243 -3.57189,0 -10.67847,0 -0.33487,0 -0.55811,0.223244 -0.22324,0.223243 -0.22324,0.520901 z"
       id="path3" />
  </g>
  <metadata
     id="metadata132">
    <rdf:RDF>
      <cc:Work
         rdf:about="">
        <dc:title>Logo for Power Swing ReMixed</dc:title>
      </cc:Work>
    </rdf:RDF>
  </metadata>
</svg>
